<svg width="49" height="18" viewBox="0 0 49 18" fill="none" xmlns="http://www.w3.org/2000/svg">
<path fill-rule="evenodd" clip-rule="evenodd" d="M48.5778 8.99998C48.5778 13.95 44.5279 18 39.578 18C34.6281 18 30.5782 13.95 30.5782 8.99998C30.5782 4.04999 34.6281 0 39.578 0C44.5279 0 48.5778 4.04999 48.5778 8.99998Z" fill="url(#paint0_radial_1_364)"/>
<path fill-rule="evenodd" clip-rule="evenodd" d="M48.5778 8.99998C48.5778 13.95 44.5279 18 39.578 18C34.6281 18 30.5782 13.95 30.5782 8.99998C30.5782 4.04999 34.6281 0 39.578 0C44.5279 0 48.5778 4.04999 48.5778 8.99998Z" fill="url(#paint1_radial_1_364)"/>
<path fill-rule="evenodd" clip-rule="evenodd" d="M41.4898 6.63752C41.3773 6.30002 37.7774 6.30002 37.6649 6.63752C37.5524 6.97502 38.3399 7.42502 39.5773 7.42502C40.8148 7.42502 41.6023 6.97502 41.4898 6.63752Z" fill="url(#paint2_linear_1_364)"/>
<path fill-rule="evenodd" clip-rule="evenodd" d="M41.49 9.56242C39.1276 8.88742 38.3401 10.4624 38.3401 10.4624C38.3401 10.4624 38.5651 8.66242 36.2026 7.87492C33.9527 7.19992 32.6027 9.33742 32.4902 10.5749C32.2652 13.3874 34.7402 16.5374 35.6401 17.6624C35.7526 17.9999 36.0901 17.9999 36.4276 17.9999C37.7776 17.6624 41.6025 16.4249 43.065 13.9499C43.6275 12.7124 43.74 10.2374 41.49 9.56242Z" fill="url(#paint3_linear_1_364)"/>
<path fill-rule="evenodd" clip-rule="evenodd" d="M41.49 9.56242C39.1276 8.88742 38.3401 10.4624 38.3401 10.4624C38.3401 10.4624 38.5651 8.66242 36.2026 7.87492C33.9527 7.19992 32.6027 9.33742 32.4902 10.5749C32.2652 13.3874 34.7402 16.5374 35.6401 17.6624C35.7526 17.9999 36.0901 17.9999 36.4276 17.9999C37.7776 17.6624 41.6025 16.4249 43.065 13.9499C43.6275 12.7124 43.74 10.2374 41.49 9.56242Z" fill="url(#paint4_radial_1_364)"/>
<path fill-rule="evenodd" clip-rule="evenodd" d="M41.49 9.56242C39.1276 8.88742 38.3401 10.4624 38.3401 10.4624C38.3401 10.4624 38.5651 8.66242 36.2026 7.87492C33.9527 7.19992 32.6027 9.33742 32.4902 10.5749C32.2652 13.3874 34.7402 16.5374 35.6401 17.6624C35.7526 17.9999 36.0901 17.9999 36.4276 17.9999C37.7776 17.6624 41.6025 16.4249 43.065 13.9499C43.6275 12.7124 43.74 10.2374 41.49 9.56242Z" fill="url(#paint5_radial_1_364)"/>
<path fill-rule="evenodd" clip-rule="evenodd" d="M41.49 9.56242C39.1276 8.88742 38.3401 10.4624 38.3401 10.4624C38.3401 10.4624 38.5651 8.66242 36.2026 7.87492C33.9527 7.19992 32.6027 9.33742 32.4902 10.5749C32.2652 13.3874 34.7402 16.5374 35.6401 17.6624C35.7526 17.9999 36.0901 17.9999 36.4276 17.9999C37.7776 17.6624 41.6025 16.4249 43.065 13.9499C43.6275 12.7124 43.74 10.2374 41.49 9.56242Z" fill="url(#paint6_radial_1_364)"/>
<path fill-rule="evenodd" clip-rule="evenodd" d="M41.49 9.56242C39.1276 8.88742 38.3401 10.4624 38.3401 10.4624C38.3401 10.4624 38.5651 8.66242 36.2026 7.87492C33.9527 7.19992 32.6027 9.33742 32.4902 10.5749C32.2652 13.3874 34.7402 16.5374 35.6401 17.6624C35.7526 17.9999 36.0901 17.9999 36.4276 17.9999C37.7776 17.6624 41.6025 16.4249 43.065 13.9499C43.6275 12.7124 43.74 10.2374 41.49 9.56242Z" fill="url(#paint7_radial_1_364)"/>
<path fill-rule="evenodd" clip-rule="evenodd" d="M41.49 9.56242C39.1276 8.88742 38.3401 10.4624 38.3401 10.4624C38.3401 10.4624 38.5651 8.66242 36.2026 7.87492C33.9527 7.19992 32.6027 9.33742 32.4902 10.5749C32.2652 13.3874 34.7402 16.5374 35.6401 17.6624C35.7526 17.9999 36.0901 17.9999 36.4276 17.9999C37.7776 17.6624 41.6025 16.4249 43.065 13.9499C43.6275 12.7124 43.74 10.2374 41.49 9.56242Z" fill="url(#paint8_radial_1_364)"/>
<path fill-rule="evenodd" clip-rule="evenodd" d="M41.49 9.56242C39.1276 8.88742 38.3401 10.4624 38.3401 10.4624C38.3401 10.4624 38.5651 8.66242 36.2026 7.87492C33.9527 7.19992 32.6027 9.33742 32.4902 10.5749C32.2652 13.3874 34.7402 16.5374 35.6401 17.6624C35.7526 17.9999 36.0901 17.9999 36.4276 17.9999C37.7776 17.6624 41.6025 16.4249 43.065 13.9499C43.6275 12.7124 43.74 10.2374 41.49 9.56242Z" fill="url(#paint9_radial_1_364)"/>
<path fill-rule="evenodd" clip-rule="evenodd" d="M35.9776 11.025C35.9776 11.025 35.9776 11.025 35.9776 10.9125C36.0901 10.8 36.3151 10.6875 36.4276 10.575C36.8776 10.2375 36.6526 9.67498 36.0901 9.78748C35.9776 9.78748 34.6276 10.2375 33.7276 9.89998C32.8277 9.56248 32.7152 9.22498 32.0402 8.66248C31.6352 8.25749 30.9602 7.96499 30.6002 8.36998C30.5102 9.62998 30.6902 10.8225 31.0727 11.9475C31.2977 12.3075 31.5677 12.645 31.9277 12.9375C35.0776 15.4125 37.8901 14.0625 38.0026 12.2625C38.1151 10.9125 36.4276 11.025 35.9776 11.025Z" fill="url(#paint10_radial_1_364)"/>
<path d="M48.5779 8.99984C48.3304 8.43734 47.0929 7.94234 46.6654 8.79734C45.7655 10.4848 45.428 12.1723 43.2905 12.3973C42.6155 12.5098 41.7155 12.2848 41.0406 12.1723C40.4781 12.0598 40.3656 12.7348 40.8156 13.0723C41.0406 13.1848 41.1531 13.2973 41.378 13.4098V13.5223C40.8156 13.5223 39.2406 13.7473 39.5781 15.0973C39.9606 16.6723 43.3355 17.2123 45.9229 15.3898C47.5654 13.7473 48.5779 11.4973 48.5779 8.99984Z" fill="url(#paint11_radial_1_364)"/>
<path fill-rule="evenodd" clip-rule="evenodd" d="M42.0975 1.41728C41.5575 1.50728 41.535 2.22728 41.9625 2.22728C43.0875 2.22728 44.055 2.63228 44.5275 2.99228C44.9099 3.23978 45.0899 2.74478 44.9099 2.49728C44.325 1.77728 43.0425 1.25978 42.0975 1.41728Z" fill="url(#paint12_radial_1_364)"/>
<path fill-rule="evenodd" clip-rule="evenodd" d="M36.9905 1.4174C37.5305 1.5074 37.553 2.2274 37.1255 2.2274C36.0006 2.2274 35.0331 2.6324 34.5606 2.9924C34.1781 3.2399 33.9981 2.7449 34.1781 2.4974C34.7856 1.7774 36.0456 1.2599 36.9905 1.4174Z" fill="url(#paint13_radial_1_364)"/>
<path fill-rule="evenodd" clip-rule="evenodd" d="M41.8943 4.65776C41.8943 5.44526 42.3443 5.67026 43.0193 5.78276C43.6942 5.89526 44.2567 5.55776 44.2567 4.65776C44.2567 3.98276 43.9192 3.08276 43.0193 3.08276C42.2318 3.08276 41.8943 3.98276 41.8943 4.65776Z" fill="url(#paint14_radial_1_364)"/>
<path d="M42.727 4.4778C42.9631 4.4778 43.1545 4.2864 43.1545 4.0503C43.1545 3.8142 42.9631 3.6228 42.727 3.6228C42.491 3.6228 42.2996 3.8142 42.2996 4.0503C42.2996 4.2864 42.491 4.4778 42.727 4.4778Z" fill="#4E506A"/>
<path fill-rule="evenodd" clip-rule="evenodd" d="M41.8943 4.65776C41.8943 5.44526 42.3443 5.67026 43.0193 5.78276C43.6942 5.89526 44.2567 5.55776 44.2567 4.65776C44.2567 3.98276 43.9192 3.08276 43.0193 3.08276C42.2318 3.08276 41.8943 3.98276 41.8943 4.65776Z" fill="url(#paint15_radial_1_364)"/>
<path d="M42.727 4.4778C42.9631 4.4778 43.1545 4.2864 43.1545 4.0503C43.1545 3.8142 42.9631 3.6228 42.727 3.6228C42.491 3.6228 42.2996 3.8142 42.2996 4.0503C42.2996 4.2864 42.491 4.4778 42.727 4.4778Z" fill="#4E506A"/>
<path fill-rule="evenodd" clip-rule="evenodd" d="M37.1921 4.65764C37.1921 5.44514 36.7421 5.67014 36.0671 5.78264C35.3922 5.89514 34.8297 5.55764 34.8297 4.65764C34.8297 3.98264 35.1672 3.08264 36.0671 3.08264C36.8546 3.08264 37.1921 3.98264 37.1921 4.65764Z" fill="url(#paint16_radial_1_364)"/>
<path fill-rule="evenodd" clip-rule="evenodd" d="M37.1921 4.65764C37.1921 5.44514 36.7421 5.67014 36.0671 5.78264C35.3922 5.89514 34.8297 5.55764 34.8297 4.65764C34.8297 3.98264 35.1672 3.08264 36.0671 3.08264C36.8546 3.08264 37.1921 3.98264 37.1921 4.65764Z" fill="url(#paint17_radial_1_364)"/>
<path d="M35.5272 4.4778C35.7633 4.4778 35.9547 4.2864 35.9547 4.0503C35.9547 3.8142 35.7633 3.6228 35.5272 3.6228C35.2911 3.6228 35.0997 3.8142 35.0997 4.0503C35.0997 4.2864 35.2911 4.4778 35.5272 4.4778Z" fill="#4E506A"/>
<path d="M24.5774 0C19.6049 0 15.5774 4.02749 15.5774 8.99998C15.5774 13.9725 19.6049 18 24.5774 18C29.5499 18 33.5774 13.9725 33.5774 8.99998C33.5774 4.02749 29.5499 0 24.5774 0Z" fill="url(#paint18_radial_1_364)"/>
<path d="M27.3675 4.5C24.8925 4.5 24.5775 6.5475 24.5775 6.5475C24.5775 6.5475 24.2625 4.5 21.7875 4.5C19.4025 4.5 18.705 6.99749 18.9975 8.34749C19.7625 11.88 24.555 14.355 24.555 14.355C24.555 14.355 29.3475 11.88 30.1125 8.34749C30.4275 6.99749 29.73 4.5 27.3675 4.5Z" fill="white"/>
<path d="M9.5771 0C4.60461 0 0.577118 4.02749 0.577118 8.99998C0.577118 13.9725 4.60461 18 9.5771 18C14.5496 18 18.5771 13.9725 18.5771 8.99998C18.5771 4.02749 14.5496 0 9.5771 0Z" fill="url(#paint19_radial_1_364)"/>
<path d="M14.1222 8.25763C14.7297 8.68513 14.6172 9.58513 13.9647 9.92263C14.3022 10.4851 13.8747 11.2276 13.2897 11.3851C13.3797 11.5426 13.4247 11.6776 13.4022 11.8351C13.3122 12.4876 12.5922 12.6001 12.0522 12.6001H9.10468C7.93468 12.6001 7.34968 11.9476 7.34968 11.4076V8.64013C7.34968 7.17763 8.99218 5.94014 8.99218 4.90514L8.85717 3.64514C8.85717 3.57764 8.85718 3.37514 8.92467 3.33014C9.01468 3.24014 9.28468 3.08264 9.66717 3.08264C9.91467 3.08264 10.0947 3.12764 10.2972 3.24014C10.9722 3.57764 11.0622 4.41014 11.0622 5.08514C11.0622 5.40014 10.6572 6.36763 10.6122 6.70513C11.1297 6.52513 12.3447 6.32263 13.2897 6.45763C14.3922 6.61513 14.7072 7.35763 14.1222 8.25763ZM4.87468 7.20013H5.81968C5.99968 7.20013 6.17968 7.26763 6.31468 7.40263C6.44968 7.53763 6.51718 7.71763 6.51718 7.89763V12.4201C6.51718 12.6001 6.44968 12.7801 6.31468 12.9151C6.17968 13.0501 5.99968 13.1176 5.81968 13.1176H4.87468C4.69468 13.1176 4.51468 13.0501 4.37968 12.9151C4.24469 12.7801 4.17719 12.6001 4.17719 12.4201V7.89763C4.17719 7.71763 4.24469 7.53763 4.37968 7.40263C4.51468 7.26763 4.69468 7.20013 4.87468 7.20013Z" fill="white"/>
<defs>
<radialGradient id="paint0_radial_1_364" cx="0" cy="0" r="1" gradientUnits="userSpaceOnUse" gradientTransform="translate(37.7319 4.67074) scale(13.4281 13.4284)">
<stop stop-color="#FFED85"/>
<stop offset="0.1898" stop-color="#FFE180"/>
<stop offset="0.5295" stop-color="#FFC273"/>
<stop offset="0.9773" stop-color="#FF915E"/>
<stop offset="1" stop-color="#FF8E5D"/>
</radialGradient>
<radialGradient id="paint1_radial_1_364" cx="0" cy="0" r="1" gradientUnits="userSpaceOnUse" gradientTransform="translate(37.7672 5.30628) scale(8.35893 8.35909)">
<stop stop-color="#FFEA84" stop-opacity="0"/>
<stop offset="1" stop-color="#F08423" stop-opacity="0.34"/>
</radialGradient>
<linearGradient id="paint2_linear_1_364" x1="39.5773" y1="7.43231" x2="39.5773" y2="6.39169" gradientUnits="userSpaceOnUse">
<stop stop-color="#3F1D04"/>
<stop offset="1" stop-color="#7E2307"/>
</linearGradient>
<linearGradient id="paint3_linear_1_364" x1="38.1654" y1="10.9677" x2="35.8809" y2="18.3276" gradientUnits="userSpaceOnUse">
<stop stop-color="#F34462"/>
<stop offset="1" stop-color="#CC0820"/>
</linearGradient>
<radialGradient id="paint4_radial_1_364" cx="0" cy="0" r="1" gradientUnits="userSpaceOnUse" gradientTransform="translate(40.5375 12.3138) rotate(20.3932) scale(2.96201 2.96205)">
<stop stop-color="#FF7091" stop-opacity="0.7"/>
<stop offset="1" stop-color="#FE6D8E" stop-opacity="0"/>
</radialGradient>
<radialGradient id="paint5_radial_1_364" cx="0" cy="0" r="1" gradientUnits="userSpaceOnUse" gradientTransform="translate(35.3937 10.8217) rotate(20.3932) scale(2.96201 2.96205)">
<stop stop-color="#FF7091" stop-opacity="0.7"/>
<stop offset="1" stop-color="#FE6D8E" stop-opacity="0"/>
</radialGradient>
<radialGradient id="paint6_radial_1_364" cx="0" cy="0" r="1" gradientUnits="userSpaceOnUse" gradientTransform="translate(35.0732 13.2478) rotate(101.61) scale(2.54325 3.50204)">
<stop stop-color="#9C0600"/>
<stop offset="1" stop-color="#9C0600" stop-opacity="0"/>
</radialGradient>
<radialGradient id="paint7_radial_1_364" cx="0" cy="0" r="1" gradientUnits="userSpaceOnUse" gradientTransform="translate(43.432 13.501) rotate(30.6337) scale(1.53207 1.92282)">
<stop stop-color="#9C0600" stop-opacity="0.5"/>
<stop offset="1" stop-color="#9C0600" stop-opacity="0"/>
</radialGradient>
<radialGradient id="paint8_radial_1_364" cx="0" cy="0" r="1" gradientUnits="userSpaceOnUse" gradientTransform="translate(32.8994 10.2601) rotate(-20.1592) scale(1.3278 1.71109)">
<stop stop-color="#9C0600" stop-opacity="0.5"/>
<stop offset="1" stop-color="#9C0600" stop-opacity="0"/>
</radialGradient>
<radialGradient id="paint9_radial_1_364" cx="0" cy="0" r="1" gradientUnits="userSpaceOnUse" gradientTransform="translate(40.6445 15.6621) rotate(34.072) scale(1.78741 1.9359)">
<stop stop-color="#9C0600" stop-opacity="0.999"/>
<stop offset="1" stop-color="#9C0600" stop-opacity="0"/>
</radialGradient>
<radialGradient id="paint10_radial_1_364" cx="0" cy="0" r="1" gradientUnits="userSpaceOnUse" gradientTransform="translate(30.3985 8.40448) scale(7.98431 7.98447)">
<stop stop-color="#FF9F64"/>
<stop offset="1" stop-color="#FFE682"/>
</radialGradient>
<radialGradient id="paint11_radial_1_364" cx="0" cy="0" r="1" gradientUnits="userSpaceOnUse" gradientTransform="translate(47.9003 9.36369) scale(10.2697 10.2699)">
<stop stop-color="#FF9F64"/>
<stop offset="1" stop-color="#FFE682"/>
</radialGradient>
<radialGradient id="paint12_radial_1_364" cx="0" cy="0" r="1" gradientUnits="userSpaceOnUse" gradientTransform="translate(43.23 1.83685) rotate(-81.4376) scale(0.515331 2.42083)">
<stop stop-color="#E38200"/>
<stop offset="1" stop-color="#D16C00"/>
</radialGradient>
<radialGradient id="paint13_radial_1_364" cx="0" cy="0" r="1" gradientUnits="userSpaceOnUse" gradientTransform="translate(35.8667 1.83702) rotate(-98.5624) scale(0.515331 2.42083)">
<stop stop-color="#E38200"/>
<stop offset="1" stop-color="#D16C00"/>
</radialGradient>
<radialGradient id="paint14_radial_1_364" cx="0" cy="0" r="1" gradientUnits="userSpaceOnUse" gradientTransform="translate(43.0362 4.84968) rotate(-90) scale(2.0921 2.09217)">
<stop stop-color="#3B426A"/>
<stop offset="0.9792" stop-color="#191A33"/>
</radialGradient>
<radialGradient id="paint15_radial_1_364" cx="0" cy="0" r="1" gradientUnits="userSpaceOnUse" gradientTransform="translate(43.0362 4.84968) rotate(-90) scale(2.0921 2.09217)">
<stop stop-color="#3B426A"/>
<stop offset="0.9792" stop-color="#191A33"/>
</radialGradient>
<radialGradient id="paint16_radial_1_364" cx="0" cy="0" r="1" gradientUnits="userSpaceOnUse" gradientTransform="translate(36.0588 4.84955) rotate(-90) scale(2.0921 2.09217)">
<stop stop-color="#3B426A"/>
<stop offset="0.9792" stop-color="#191A33"/>
</radialGradient>
<radialGradient id="paint17_radial_1_364" cx="0" cy="0" r="1" gradientUnits="userSpaceOnUse" gradientTransform="translate(36.0588 4.84955) rotate(-90) scale(2.0921 2.09217)">
<stop stop-color="#3B426A"/>
<stop offset="0.9792" stop-color="#191A33"/>
</radialGradient>
<radialGradient id="paint18_radial_1_364" cx="0" cy="0" r="1" gradientUnits="userSpaceOnUse" gradientTransform="translate(23.5928 8.00437) rotate(75.6577) scale(9.83612 9.83599)">
<stop stop-color="#FF8297"/>
<stop offset="0.1592" stop-color="#FD7A90"/>
<stop offset="0.4121" stop-color="#F8637B"/>
<stop offset="0.7251" stop-color="#EF3D5B"/>
<stop offset="1" stop-color="#E61739"/>
</radialGradient>
<radialGradient id="paint19_radial_1_364" cx="0" cy="0" r="1" gradientUnits="userSpaceOnUse" gradientTransform="translate(6.86118 5.5977) rotate(77.6772) scale(12.7045 12.7045)">
<stop stop-color="#18AFFF"/>
<stop offset="1" stop-color="#0062DF"/>
</radialGradient>
</defs>
</svg>
